<?xml version="1.0" encoding="iso-8859-1"?>
<!-- Generator: Adobe Illustrator 19.0.0, SVG Export Plug-In . SVG Version: 6.00 Build 0)  -->
<svg version="1.1" id="Capa_1" xmlns="http://www.w3.org/2000/svg" xmlns:xlink="http://www.w3.org/1999/xlink" x="0px" y="0px"
	 viewBox="0 0 512 512" style="enable-background:new 0 0 512 512;" xml:space="preserve">
<polygon style="fill:#A45E43;" points="413.5,302.5 428.5,347.5 443.5,302.5 443.5,257.5 413.5,257.5 "/>
<rect x="413.5" y="302.5" style="fill:#C27749;" width="30" height="187"/>
<polygon style="fill:#A45E43;" points="293.5,302.5 308.5,347.5 323.5,302.5 323.5,257.5 293.5,257.5 "/>
<rect x="293.5" y="302.5" style="fill:#C27749;" width="30" height="187"/>
<path style="fill:#E18F4E;" d="M368.5,7.5c-8.284,0-15,6.716-15,15v75h30v-75C383.5,14.216,376.784,7.5,368.5,7.5z"/>
<polygon style="fill:#9DB55F;" points="443.5,197.5 443.5,242.5 413.5,242.5 383.5,167.5 "/>
<polygon style="fill:#B9D171;" points="413.5,167.5 413.5,242.5 293.5,242.5 293.5,197.5 "/>
<polygon style="fill:#A8E5FF;" points="443.5,67.5 443.5,197.5 413.5,197.5 383.5,132.5 413.5,67.5 "/>
<rect x="293.5" y="67.5" style="fill:#DBF4FF;" width="120" height="130"/>
<path style="fill:#9DB55F;" d="M398.5,97.5c-8.284,0-15,6.716-15,15v45c0,8.284,6.716,15,15,15s15-6.716,15-15v-45
	C413.5,104.216,406.784,97.5,398.5,97.5z"/>
<circle style="fill:#FFCB63;" cx="338.5" cy="112.5" r="15"/>
<polygon style="fill:#C27749;" points="458.5,242.5 413.5,257.5 458.5,272.5 488.5,272.5 488.5,242.5 "/>
<rect x="248.5" y="242.5" style="fill:#E18F4E;" width="210" height="30"/>
<path style="fill:#DBF4FF;" d="M121,352.5c0,8.284,6.716,15,15,15s15-6.716,15-15v-45h-30V352.5z"/>
<path style="fill:#A8E5FF;" d="M181,307.5v45c0,8.284,6.716,15,15,15s15-6.716,15-15v-45H181z"/>
<polygon style="fill:#2DADE3;" points="158.5,237.5 188.5,322.495 218.5,322.5 218.5,292.5 "/>
<polygon style="fill:#49C9FF;" points="113.5,292.5 113.5,322.5 188.5,322.495 188.5,237.5 "/>
<path style="fill:#A8E5FF;" d="M198.5,172.5h-30l20,120h30v-100C218.5,181.45,209.55,172.5,198.5,172.5z"/>
<path style="fill:#DBF4FF;" d="M188.5,192.5v99.994h-75V192.5c0-11.05,8.95-20,20-20h35C179.55,172.5,188.5,181.45,188.5,192.5z"/>
<path style="fill:#2DADE3;" d="M166,52.494l15,90h30v-45C211,72.642,190.853,52.494,166,52.494z"/>
<path style="fill:#49C9FF;" d="M166,52.494c-24.853,0-45,20.147-45,45v45h60v-45C181,72.642,174.284,52.494,166,52.494z"/>
<path d="M316,112.5c0,12.406,10.094,22.5,22.5,22.5s22.5-10.094,22.5-22.5S350.906,90,338.5,90S316,100.094,316,112.5z M346,112.5
	c0,4.136-3.364,7.5-7.5,7.5s-7.5-3.364-7.5-7.5s3.364-7.5,7.5-7.5S346,108.364,346,112.5z"/>
<path d="M488.5,235H451V67.5c0-4.143-3.357-7.5-7.5-7.5h-30c-4.143,0-7.5,3.357-7.5,7.5s3.357,7.5,7.5,7.5H436v115h-30v-11.29
	c8.729-3.096,15-11.433,15-21.21v-45c0-12.406-10.094-22.5-22.5-22.5S376,100.094,376,112.5v45c0,9.777,6.271,18.114,15,21.21V190
	h-90V75h82.5c4.143,0,7.5-3.357,7.5-7.5v-45C391,10.094,380.906,0,368.5,0S346,10.094,346,22.5V60h-52.5c-4.143,0-7.5,3.357-7.5,7.5
	V235h-37.5c-4.143,0-7.5,3.357-7.5,7.5v30c0,4.143,3.357,7.5,7.5,7.5H286v202h-22.5c-4.143,0-7.5,3.357-7.5,7.5s3.357,7.5,7.5,7.5
	h7.5v7.5c0,4.143,3.357,7.5,7.5,7.5s7.5-3.357,7.5-7.5V497h165v7.5c0,4.143,3.357,7.5,7.5,7.5s7.5-3.357,7.5-7.5V497h7.5
	c4.143,0,7.5-3.357,7.5-7.5s-3.357-7.5-7.5-7.5H451V280h37.5c4.143,0,7.5-3.357,7.5-7.5v-30C496,238.357,492.643,235,488.5,235z
	 M391,112.5c0-4.136,3.364-7.5,7.5-7.5s7.5,3.364,7.5,7.5v45c0,4.136-3.364,7.5-7.5,7.5s-7.5-3.364-7.5-7.5V112.5z M361,22.5
	c0-4.136,3.364-7.5,7.5-7.5s7.5,3.364,7.5,7.5V60h-15V22.5z M301,205h135v30H301V205z M301,280h15v202h-15V280z M406,280v45h-30
	v-22.5c0-4.143-3.357-7.5-7.5-7.5s-7.5,3.357-7.5,7.5V325h-30v-45H406z M331,340h75v142h-75V340z M436,482h-15V280h15V482z M481,265
	H256v-15h225V265z"/>
<path d="M228.372,497.379l-24.872-8.29V373.71c8.729-3.096,15-11.433,15-21.21V330c4.143,0,7.5-3.357,7.5-7.5v-130
	c0-15.163-12.337-27.5-27.5-27.5h-65c-12.563,0-23.178,8.472-26.452,20H61v-64.393l11.946-11.946c2.929-2.93,2.929-7.678,0-10.607
	c-2.93-2.928-7.678-2.928-10.607,0L61,99.393V97.5c0-4.143-3.357-7.5-7.5-7.5S46,93.357,46,97.5v1.893l-1.339-1.339
	c-2.93-2.928-7.678-2.928-10.607,0c-2.929,2.93-2.929,7.678,0,10.607L46,120.607V185h-7.5C26.094,185,16,195.094,16,207.5
	S26.094,230,38.5,230H46v7.5c0,4.143,3.357,7.5,7.5,7.5s7.5-3.357,7.5-7.5V200h45v122.5c0,4.143,3.357,7.5,7.5,7.5v22.5
	c0,9.777,6.271,18.114,15,21.21v115.379l-24.872,8.29c-3.93,1.31-6.053,5.558-4.743,9.487c1.048,3.143,3.974,5.13,7.114,5.13
	c0.786,0,1.586-0.125,2.373-0.387l30-10c3.062-1.021,5.128-3.887,5.128-7.115V373.71c8.729-3.096,15-11.433,15-21.21V330h15v22.5
	c0,9.777,6.271,18.114,15,21.21v120.784c0,3.229,2.065,6.095,5.128,7.115l30,10c0.787,0.262,1.587,0.387,2.373,0.387
	c3.14,0,6.066-1.987,7.114-5.13C234.425,502.937,232.302,498.688,228.372,497.379z M46,215h-7.5c-4.136,0-7.5-3.364-7.5-7.5
	s3.364-7.5,7.5-7.5H46V215z M121,315v-15h90v15H121z M133.5,180h65c6.893,0,12.5,5.607,12.5,12.5V285h-90v-92.5
	C121,185.607,126.607,180,133.5,180z M143.5,352.5c0,4.136-3.364,7.5-7.5,7.5s-7.5-3.364-7.5-7.5V330h15V352.5z M203.5,330v22.5
	c0,4.136-3.364,7.5-7.5,7.5s-7.5-3.364-7.5-7.5V330H203.5z"/>
<circle cx="188.5" cy="232.5" r="7.5"/>
<circle cx="188.5" cy="262.5" r="7.5"/>
<circle cx="188.5" cy="202.5" r="7.5"/>
<path d="M121,149.994h90c4.143,0,7.5-3.357,7.5-7.5v-45c0-28.948-23.552-52.5-52.5-52.5s-52.5,23.552-52.5,52.5v45
	C113.5,146.637,116.857,149.994,121,149.994z M128.5,97.494c0-20.678,16.822-37.5,37.5-37.5s37.5,16.822,37.5,37.5v37.5h-75V97.494z
	"/>
<g>
</g>
<g>
</g>
<g>
</g>
<g>
</g>
<g>
</g>
<g>
</g>
<g>
</g>
<g>
</g>
<g>
</g>
<g>
</g>
<g>
</g>
<g>
</g>
<g>
</g>
<g>
</g>
<g>
</g>
</svg>
